<?xml version="1.0" standalone="no"?>
<!DOCTYPE svg PUBLIC "-//W3C//DTD SVG 20010904//EN"
 "http://www.w3.org/TR/2001/REC-SVG-20010904/DTD/svg10.dtd">
<svg version="1.0" xmlns="http://www.w3.org/2000/svg"
 width="225.000000pt" height="225.000000pt" viewBox="0 0 225.000000 225.000000"
 preserveAspectRatio="xMidYMid meet">
<metadata>
Created by potrace 1.14, written by Peter Selinger 2001-2017
</metadata>
<g transform="translate(0.000000,225.000000) scale(0.100000,-0.100000)"
fill="#000000" stroke="none">
<path d="M985 2080 c-246 -39 -468 -173 -615 -371 -296 -398 -250 -949 109
-1292 94 -89 146 -126 253 -177 362 -173 803 -90 1072 201 388 419 343 1084
-97 1435 -97 78 -251 156 -362 184 -93 24 -271 34 -360 20z m210 -657 c71 -25
155 -110 183 -186 61 -161 -7 -341 -156 -414 -81 -40 -183 -40 -263 0 -229
112 -253 424 -45 565 27 17 62 36 80 41 52 15 148 12 201 -6z"/>
</g>
</svg>
